<svg width="500" height="500" viewBox="0 0 500 500" xmlns="http://www.w3.org/2000/svg">
    <circle cx="250" cy="250" r="230" fill="none" stroke="#0D47A1" stroke-width="15" />
    <circle cx="250" cy="250" r="210" fill="none" stroke="#42A5F5" stroke-width="5" stroke-dasharray="20,10" />

    <path d="M320 220 L380 220 L400 270 L400 340 L320 340 Z" fill="#E0E0E0" stroke="#263238" stroke-width="4"/>
    <rect x="330" y="235" width="40" height="35" fill="#BBDEFB" /> <rect x="120" y="240" width="200" height="100" rx="40" ry="40" fill="#1565C0" stroke="#0D47A1" stroke-width="4"/>
    <line x1="160" y1="240" x2="160" y2="340" stroke="#0D47A1" stroke-width="4" opacity="0.5"/>
    <line x1="220" y1="240" x2="220" y2="340" stroke="#0D47A1" stroke-width="4" opacity="0.5"/>
    <line x1="280" y1="240" x2="280" y2="340" stroke="#0D47A1" stroke-width="4" opacity="0.5"/>

    <circle cx="180" cy="350" r="25" fill="#212121" />
    <circle cx="180" cy="350" r="10" fill="#9E9E9E" />
    <circle cx="340" cy="350" r="25" fill="#212121" />
    <circle cx="340" cy="350" r="10" fill="#9E9E9E" />

    <path d="M120 290 C40 290, 40 400, 150 400" fill="none" stroke="#455A64" stroke-width="12" stroke-linecap="round" />
    <path d="M150 380 Q130 400 150 420 Q170 400 150 380" fill="#29B6F6" /> <path d="M220 180 Q250 140 280 180 Q310 220 250 220 Q190 220 220 180" fill="none" stroke="#03A9F4" stroke-width="5" opacity="0.7">
    <animateTransform attributeName="transform" type="rotate" from="0 250 180" to="360 250 180" dur="5s" repeatCount="indefinite" />
</path>
</svg>